<svg xmlns="http://www.w3.org/2000/svg" version="1.1" xmlns:xlink="http://www.w3.org/1999/xlink" xmlns:svgjs="http://svgjs.dev/svgjs" width="1000" height="750" viewBox="0 0 1000 750"><rect width="1000" height="750" fill="#050816"></rect><g transform="matrix(0.584,0,0,0.584,207.9169461077845,82.91694610778441)"><svg viewBox="0 0 334 334" data-background-color="#050816" preserveAspectRatio="xMidYMid meet" height="1000" width="1000" xmlns="http://www.w3.org/2000/svg" xmlns:xlink="http://www.w3.org/1999/xlink"><g id="tight-bounds" transform="matrix(1,0,0,1,0.04749999999998522,0.04750000000001364)"><svg viewBox="0 0 333.90454557049503 333.90454557049503" height="333.90454557049503" width="333.90454557049503"><g><svg></svg></g><g><svg viewBox="0 0 333.90454557049503 333.90454557049503" height="333.90454557049503" width="333.90454557049503"><g><path d="M0 166.952c0-92.205 74.747-166.952 166.952-166.952 92.205 0 166.952 74.747 166.953 166.952 0 92.205-74.747 166.952-166.953 166.953-92.205 0-166.952-74.747-166.952-166.953zM166.952 316.63c82.665 0 149.677-67.013 149.678-149.678 0-82.665-67.013-149.677-149.678-149.677-82.665 0-149.677 67.013-149.677 149.677 0 82.665 67.013 149.677 149.677 149.678z" data-fill-palette-color="tertiary" fill="#f9160f" stroke="transparent"></path><ellipse rx="160.27418187383762" ry="160.27418187383762" cx="166.95227278524752" cy="166.95227278524752" fill="#f9160f" stroke="transparent" stroke-width="0" fill-opacity="1" data-fill-palette-color="tertiary"></ellipse></g><g transform="matrix(1,0,0,1,92.51813562269503,71.17305217166896)"><svg viewBox="0 0 148.86827432510498 191.55844122715712" height="191.55844122715712" width="148.86827432510498"><g><svg viewBox="0 0 148.86827432510498 191.55844122715712" height="191.55844122715712" width="148.86827432510498"><g><svg viewBox="0 0 148.86827432510498 191.55844122715712" height="191.55844122715712" width="148.86827432510498"><g><svg viewBox="0 0 148.86827432510498 191.55844122715712" height="191.55844122715712" width="148.86827432510498"><g id="textblocktransform"><svg viewBox="0 0 148.86827432510498 191.55844122715712" height="191.55844122715712" width="148.86827432510498" id="textblock"><g><svg viewBox="0 0 148.86827432510498 191.55844122715712" height="191.55844122715712" width="148.86827432510498"><g transform="matrix(1,0,0,1,0,0)"><svg width="148.86827432510498" viewBox="2 -35 27.200000762939453 35" height="191.55844122715712" data-palette-color="#ffffff"><path d="M14.7-1.4L14.7 0 2 0 2-1.4 3.6-1.4Q4.7-1.4 5.25-1.78 5.8-2.15 5.9-2.55 6-2.95 6-3.7L6-3.7 6-31.3Q6-32.55 5.5-33.08 5-33.6 3.6-33.6L3.6-33.6 2-33.6 2-35 28.7-35 29.2-27.9 27.8-27.7Q27.7-29.55 26.25-31.23 24.8-32.9 22.2-32.9L22.2-32.9 12.8-32.9Q11.7-32.9 11.15-32.55 10.6-32.2 10.5-31.8 10.4-31.4 10.4-30.7L10.4-30.7 10.4-19.6 20.1-19.6Q20.85-19.6 21.25-19.7L21.25-19.7Q22.3-19.95 22.3-21.6L22.3-21.6 22.3-24 23.8-24 23.8-13.3 22.3-13.3 22.3-15.5Q22.3-16.8 21.75-17.15 21.2-17.5 20.1-17.5L20.1-17.5 10.4-17.5 10.4-3.7Q10.4-2.95 10.5-2.55 10.6-2.15 11.15-1.78 11.7-1.4 12.8-1.4L12.8-1.4 14.7-1.4Z" opacity="1" transform="matrix(1,0,0,1,0,0)" fill="#ffffff" class="undefined-text-0" data-fill-palette-color="quaternary" id="text-0"></path></svg></g></svg></g></svg></g></svg></g><g></g></svg></g></svg></g></svg></g></svg></g><defs></defs></svg><rect width="333.90454557049503" height="333.90454557049503" fill="none" stroke="none" visibility="hidden"></rect></g></svg></g></svg>